<svg width="16" height="16" viewBox="0 0 16 16" fill="none" xmlns="http://www.w3.org/2000/svg">
<path id="Vector" d="M5.2192 10.9987L5.14886 11.0698C6.25072 12.1769 7.47488 12.768 8.63465 12.8684C9.79513 12.9689 10.8879 12.5776 11.7224 11.7263C13.3032 10.114 13.1846 7.55356 11.2474 5.37684L11.1705 5.44056C11.7341 6.17342 12.0615 7.10524 12.0342 8.11734C11.9747 10.319 10.2112 12.1019 8.06524 12.1369C6.96172 12.1547 5.95764 11.7186 5.2192 10.9987ZM4.26667 4.218L4.26666 4.21801C2.6422 5.87419 2.85674 8.64579 4.99159 10.9074L5.06474 10.8392C4.39432 10.1107 3.97876 9.13272 3.96496 8.05521C3.93645 5.80856 5.69059 3.93129 7.87901 3.86556C8.78986 3.83822 9.63525 4.12021 10.3225 4.61741L10.3839 4.53857C8.252 2.75194 5.80699 2.64835 4.26667 4.218ZM8.02961 15.95C3.61201 15.95 0.109232 12.8434 0.0506888 8.07576C-0.0087446 3.15812 3.78833 0.0503093 8.02961 0.05C12.2123 0.05 16.0079 3.15788 15.9493 8.07577C15.8908 12.9023 12.0059 15.95 8.02961 15.95Z" fill="#4f46e5" stroke="#001A50" stroke-width="0.1"/>
</svg>
